<?xml version="1.0" standalone="no"?>
<!DOCTYPE svg PUBLIC "-//W3C//DTD SVG 20010904//EN"
 "http://www.w3.org/TR/2001/REC-SVG-20010904/DTD/svg10.dtd">
<svg version="1.0" xmlns="http://www.w3.org/2000/svg"
 width="512.000000pt" height="512.000000pt" viewBox="0 0 512.000000 512.000000"
 preserveAspectRatio="xMidYMid meet">

<g transform="translate(0.000000,512.000000) scale(0.100000,-0.100000)"
fill="#000000" stroke="none">
<path d="M2424 4099 c-154 -15 -353 -73 -493 -143 -148 -76 -352 -243 -460
-380 -171 -215 -274 -434 -351 -745 -17 -69 -36 -133 -41 -143 -11 -20 -59
-25 -59 -6 0 6 -10 2 -22 -9 -26 -23 -71 -36 -97 -28 -16 5 -18 17 -15 98 3
86 -11 200 -16 137 -2 -27 -5 -42 -10 -50 -5 -9 -9 -44 -14 -122 l-6 -78 50 0
c27 0 51 -3 53 -7 3 -5 15 -127 28 -272 18 -206 20 -266 11 -269 -35 -11 -73
-57 -87 -105 -40 -136 4 -703 67 -849 31 -74 58 -92 132 -94 61 -1 65 -3 100
-41 20 -23 49 -46 65 -52 19 -8 36 -29 52 -62 32 -70 86 -116 145 -125 68 -10
250 2 310 20 84 26 88 35 92 205 7 293 -70 1167 -120 1356 -28 107 -56 121
-227 112 -206 -10 -275 -48 -312 -168 -12 -38 -24 -69 -28 -69 -4 0 -24 -17
-44 -37 -21 -20 -37 -32 -37 -27 0 5 -9 101 -20 214 -28 287 -30 266 26 273
26 2 50 10 54 17 4 7 13 53 19 104 57 431 255 777 586 1027 100 75 292 170
410 204 333 96 690 67 990 -79 149 -73 265 -158 388 -285 240 -249 363 -520
412 -909 8 -64 25 -82 76 -82 36 0 39 -2 39 -27 0 -25 -23 -286 -36 -410 l-5
-52 -35 34 c-19 19 -38 35 -43 35 -5 0 -14 21 -20 46 -22 85 -46 120 -104 148
-65 32 -143 46 -260 46 -151 0 -171 -19 -201 -196 -44 -255 -94 -819 -103
-1154 -7 -264 -3 -283 59 -313 54 -25 162 -39 271 -35 132 4 158 19 207 111
19 37 44 70 54 73 11 4 41 27 68 52 46 43 52 46 108 46 63 1 97 22 125 76 36
70 67 267 85 540 16 258 -6 382 -74 417 -17 8 -32 17 -34 18 -3 3 36 456 43
501 5 29 9 32 51 37 26 2 50 11 54 18 21 32 -27 319 -79 477 -22 68 -62 169
-90 225 -50 104 -144 255 -168 270 -7 4 -13 15 -13 22 0 8 -4 15 -9 15 -5 0
-13 9 -16 20 -4 11 -10 18 -15 15 -5 -3 -10 0 -12 6 -6 18 -78 2 -78 -17 0 -8
26 -58 58 -112 32 -53 70 -117 84 -142 49 -85 119 -264 148 -376 42 -160 63
-360 35 -333 -2 3 -16 63 -30 135 -49 246 -139 466 -268 653 -66 95 -223 255
-307 311 -78 53 -309 168 -405 203 -220 78 -461 109 -691 86z m-1440 -1541 c9
-73 28 -370 23 -374 -2 -2 -11 76 -21 174 -9 97 -19 192 -22 210 -3 18 -1 32
5 32 5 0 12 -19 15 -42z m45 -119 c13 -170 13 -184 5 -176 -8 8 -33 219 -34
287 0 106 18 34 29 -111z m624 -89 c5 -19 7 -73 4 -120 -4 -70 -9 -87 -26
-101 -12 -10 -31 -16 -44 -13 -12 3 -43 9 -69 14 -53 10 -122 43 -135 62 -23
37 -4 72 55 102 27 14 68 41 92 61 35 29 50 35 78 33 32 -3 37 -7 45 -38z
m1940 -90 c40 -19 36 -52 -8 -73 -50 -24 -74 -22 -85 9 -9 22 -5 64 7 86 4 7
44 -3 86 -22z m-1910 -486 c4 -21 6 -68 5 -104 l-3 -65 -18 27 c-32 47 -35
196 -4 185 6 -2 15 -21 20 -43z m2102 19 c14 -13 16 -28 12 -71 -8 -76 -44
-97 -72 -42 -21 41 -19 80 7 107 26 27 31 28 53 6z m296 -180 c-8 -15 -10 -10
-11 23 0 22 3 44 8 48 11 12 14 -52 3 -71z m79 27 c0 -16 -4 -30 -10 -30 -11
0 -14 43 -3 53 11 12 13 8 13 -23z"/>
</g>
</svg>
